<?xml version="1.0" encoding="UTF-8" standalone="no"?>
<!DOCTYPE svg PUBLIC "-//W3C//DTD SVG 1.1//EN"
 "http://www.w3.org/Graphics/SVG/1.1/DTD/svg11.dtd">
<!-- Generated by graphviz version 3.0.0 (20220226.1711)
 -->
<!-- Pages: 1 -->
<svg width="479pt" height="278pt"
 viewBox="0.00 0.00 478.98 278.49" xmlns="http://www.w3.org/2000/svg" xmlns:xlink="http://www.w3.org/1999/xlink">
<g id="page0,1_graph0" class="graph" transform="scale(1 1) rotate(0) translate(4 274.49)">
<polygon fill="white" stroke="transparent" points="-4,4 -4,-274.49 474.98,-274.49 474.98,4 -4,4"/>
<!-- start -->
<g id="node1" class="node">
<title>start</title>
<ellipse fill="white" stroke="white" cx="27" cy="-29.25" rx="27" ry="18"/>
</g>
<!-- q1q3 -->
<g id="node2" class="node">
<title>q1q3</title>
<ellipse fill="none" stroke="black" cx="120.25" cy="-29.25" rx="29.5" ry="29.5"/>
<text text-anchor="middle" x="120.25" y="-25.55" font-family="Times New Roman,serif" font-size="14.00">q1q3</text>
</g>
<!-- start&#45;&gt;q1q3 -->
<g id="edge1" class="edge">
<title>start&#45;&gt;q1q3</title>
<path fill="none" stroke="black" d="M54.39,-29.25C62.56,-29.25 71.74,-29.25 80.57,-29.25"/>
<polygon fill="black" stroke="black" points="80.68,-32.75 90.68,-29.25 80.68,-25.75 80.68,-32.75"/>
</g>
<!-- q1q3&#45;&gt;q1q3 -->
<g id="edge3" class="edge">
<title>q1q3&#45;&gt;q1q3</title>
<path fill="none" stroke="black" d="M111.64,-57.38C111.36,-67.86 114.23,-76.49 120.25,-76.49 124.1,-76.49 126.67,-72.95 127.94,-67.65"/>
<polygon fill="black" stroke="black" points="131.45,-67.65 128.85,-57.38 124.48,-67.03 131.45,-67.65"/>
<text text-anchor="middle" x="120.25" y="-80.29" font-family="Times New Roman,serif" font-size="14.00">b</text>
</g>
<!-- q2q4 -->
<g id="node6" class="node">
<title>q2q4</title>
<ellipse fill="none" stroke="black" cx="225.74" cy="-113.25" rx="29.47" ry="29.47"/>
<ellipse fill="none" stroke="black" cx="225.74" cy="-113.25" rx="33.5" ry="33.5"/>
<text text-anchor="middle" x="225.74" y="-109.55" font-family="Times New Roman,serif" font-size="14.00">q2q4</text>
</g>
<!-- q1q3&#45;&gt;q2q4 -->
<g id="edge2" class="edge">
<title>q1q3&#45;&gt;q2q4</title>
<path fill="none" stroke="black" d="M143.45,-47.27C157.41,-58.6 175.68,-73.43 191.37,-86.16"/>
<polygon fill="black" stroke="black" points="189.33,-89.01 199.3,-92.6 193.74,-83.58 189.33,-89.01"/>
<text text-anchor="middle" x="170.99" y="-75.05" font-family="Times New Roman,serif" font-size="14.00">a</text>
</g>
<!-- q1q4 -->
<g id="node3" class="node">
<title>q1q4</title>
<ellipse fill="none" stroke="black" cx="332.24" cy="-182.25" rx="29.5" ry="29.5"/>
<text text-anchor="middle" x="332.24" y="-178.55" font-family="Times New Roman,serif" font-size="14.00">q1q4</text>
</g>
<!-- q1q4&#45;&gt;q1q4 -->
<g id="edge5" class="edge">
<title>q1q4&#45;&gt;q1q4</title>
<path fill="none" stroke="black" d="M322.88,-210.38C322.58,-220.86 325.69,-229.49 332.24,-229.49 336.43,-229.49 339.21,-225.95 340.6,-220.65"/>
<polygon fill="black" stroke="black" points="344.11,-220.67 341.59,-210.38 337.14,-220 344.11,-220.67"/>
<text text-anchor="middle" x="332.24" y="-233.29" font-family="Times New Roman,serif" font-size="14.00">b</text>
</g>
<!-- q2q3 -->
<g id="node5" class="node">
<title>q2q3</title>
<ellipse fill="none" stroke="black" cx="437.73" cy="-93.25" rx="29.47" ry="29.47"/>
<ellipse fill="none" stroke="black" cx="437.73" cy="-93.25" rx="33.5" ry="33.5"/>
<text text-anchor="middle" x="437.73" y="-89.55" font-family="Times New Roman,serif" font-size="14.00">q2q3</text>
</g>
<!-- q1q4&#45;&gt;q2q3 -->
<g id="edge4" class="edge">
<title>q1q4&#45;&gt;q2q3</title>
<path fill="none" stroke="black" d="M354.93,-163.59C369.2,-151.32 388.12,-135.05 404.17,-121.25"/>
<polygon fill="black" stroke="black" points="406.49,-123.87 411.79,-114.7 401.93,-118.56 406.49,-123.87"/>
<text text-anchor="middle" x="382.98" y="-144.05" font-family="Times New Roman,serif" font-size="14.00">a</text>
</g>
<!-- q1q5 -->
<g id="node4" class="node">
<title>q1q5</title>
<ellipse fill="none" stroke="black" cx="120.25" cy="-157.25" rx="29.5" ry="29.5"/>
<text text-anchor="middle" x="120.25" y="-153.55" font-family="Times New Roman,serif" font-size="14.00">q1q5</text>
</g>
<!-- q1q5&#45;&gt;q1q4 -->
<g id="edge7" class="edge">
<title>q1q5&#45;&gt;q1q4</title>
<path fill="none" stroke="black" d="M149.57,-160.62C186.62,-165.03 251.68,-172.78 293.05,-177.7"/>
<polygon fill="black" stroke="black" points="292.69,-181.18 303.03,-178.89 293.51,-174.23 292.69,-181.18"/>
<text text-anchor="middle" x="225.74" y="-177.05" font-family="Times New Roman,serif" font-size="14.00">b</text>
</g>
<!-- q1q5&#45;&gt;q2q4 -->
<g id="edge6" class="edge">
<title>q1q5&#45;&gt;q2q4</title>
<path fill="none" stroke="black" d="M147.36,-146.14C158.91,-141.23 172.74,-135.36 185.49,-129.94"/>
<polygon fill="black" stroke="black" points="187.14,-133.04 194.97,-125.9 184.4,-126.6 187.14,-133.04"/>
<text text-anchor="middle" x="170.99" y="-140.05" font-family="Times New Roman,serif" font-size="14.00">a</text>
</g>
<!-- q2q3&#45;&gt;q1q3 -->
<g id="edge9" class="edge">
<title>q2q3&#45;&gt;q1q3</title>
<path fill="none" stroke="black" d="M406.09,-82.8C399.65,-80.8 392.88,-78.84 386.48,-77.25 306.61,-57.39 211.29,-42.16 159.45,-34.57"/>
<polygon fill="black" stroke="black" points="159.77,-31.08 149.38,-33.12 158.77,-38.01 159.77,-31.08"/>
<text text-anchor="middle" x="280.99" y="-58.05" font-family="Times New Roman,serif" font-size="14.00">b</text>
</g>
<!-- q2q3&#45;&gt;q2q4 -->
<g id="edge8" class="edge">
<title>q2q3&#45;&gt;q2q4</title>
<path fill="none" stroke="black" d="M405.12,-85.81C377.84,-80.54 337.52,-75.5 302.99,-82.25 290.15,-84.76 276.75,-89.44 264.82,-94.41"/>
<polygon fill="black" stroke="black" points="263.38,-91.22 255.62,-98.43 266.18,-97.64 263.38,-91.22"/>
<text text-anchor="middle" x="332.24" y="-86.05" font-family="Times New Roman,serif" font-size="14.00">a</text>
</g>
<!-- q2q4&#45;&gt;q1q4 -->
<g id="edge11" class="edge">
<title>q2q4&#45;&gt;q1q4</title>
<path fill="none" stroke="black" d="M253.92,-131.2C267.65,-140.26 284.39,-151.31 298.78,-160.82"/>
<polygon fill="black" stroke="black" points="297.12,-163.91 307.39,-166.5 300.98,-158.07 297.12,-163.91"/>
<text text-anchor="middle" x="280.99" y="-153.05" font-family="Times New Roman,serif" font-size="14.00">b</text>
</g>
<!-- q2q4&#45;&gt;q2q3 -->
<g id="edge10" class="edge">
<title>q2q4&#45;&gt;q2q3</title>
<path fill="none" stroke="black" d="M259.09,-110.17C295.39,-106.71 354.42,-101.09 394.37,-97.28"/>
<polygon fill="black" stroke="black" points="394.72,-100.76 404.34,-96.33 394.06,-93.8 394.72,-100.76"/>
<text text-anchor="middle" x="332.24" y="-109.05" font-family="Times New Roman,serif" font-size="14.00">a</text>
</g>
<!-- q2q5 -->
<g id="node7" class="node">
<title>q2q5</title>
<ellipse fill="none" stroke="black" cx="120.25" cy="-241.25" rx="29.5" ry="29.5"/>
<text text-anchor="middle" x="120.25" y="-237.55" font-family="Times New Roman,serif" font-size="14.00">q2q5</text>
</g>
<!-- q2q5&#45;&gt;q1q4 -->
<g id="edge13" class="edge">
<title>q2q5&#45;&gt;q1q4</title>
<path fill="none" stroke="black" d="M148.7,-233.53C185.88,-223.09 252.37,-204.41 294.01,-192.71"/>
<polygon fill="black" stroke="black" points="295.1,-196.04 303.78,-189.96 293.2,-189.3 295.1,-196.04"/>
<text text-anchor="middle" x="225.74" y="-224.05" font-family="Times New Roman,serif" font-size="14.00">b</text>
</g>
<!-- q2q5&#45;&gt;q2q4 -->
<g id="edge12" class="edge">
<title>q2q5&#45;&gt;q2q4</title>
<path fill="none" stroke="black" d="M139.27,-218.95C155.37,-199.05 179.17,-169.61 197.57,-146.86"/>
<polygon fill="black" stroke="black" points="200.51,-148.78 204.08,-138.8 195.07,-144.38 200.51,-148.78"/>
<text text-anchor="middle" x="170.99" y="-184.05" font-family="Times New Roman,serif" font-size="14.00">a</text>
</g>
</g>
</svg>
