<?xml version="1.0" encoding="UTF-8" standalone="no"?>
<!DOCTYPE svg PUBLIC "-//W3C//DTD SVG 1.1//EN"
 "http://www.w3.org/Graphics/SVG/1.1/DTD/svg11.dtd">
<!-- Generated by graphviz version 3.0.0 (20220226.1711)
 -->
<!-- Pages: 1 -->
<svg width="471pt" height="282pt"
 viewBox="0.00 0.00 470.98 282.49" xmlns="http://www.w3.org/2000/svg" xmlns:xlink="http://www.w3.org/1999/xlink">
<g id="page0,1_graph0" class="graph" transform="scale(1 1) rotate(0) translate(4 278.49)">
<polygon fill="white" stroke="transparent" points="-4,4 -4,-278.49 466.98,-278.49 466.98,4 -4,4"/>
<!-- start -->
<g id="node1" class="node">
<title>start</title>
<ellipse fill="white" stroke="white" cx="27" cy="-29.25" rx="27" ry="18"/>
</g>
<!-- q1q3 -->
<g id="node2" class="node">
<title>q1q3</title>
<ellipse fill="none" stroke="black" cx="124.25" cy="-29.25" rx="29.5" ry="29.5"/>
<text text-anchor="middle" x="124.25" y="-25.55" font-family="Times New Roman,serif" font-size="14.00">q1q3</text>
</g>
<!-- start&#45;&gt;q1q3 -->
<g id="edge1" class="edge">
<title>start&#45;&gt;q1q3</title>
<path fill="none" stroke="black" d="M54.03,-29.25C63.53,-29.25 74.48,-29.25 84.84,-29.25"/>
<polygon fill="black" stroke="black" points="84.91,-32.75 94.91,-29.25 84.91,-25.75 84.91,-32.75"/>
</g>
<!-- q1q3&#45;&gt;q1q3 -->
<g id="edge3" class="edge">
<title>q1q3&#45;&gt;q1q3</title>
<path fill="none" stroke="black" d="M114.89,-57.38C114.59,-67.86 117.7,-76.49 124.25,-76.49 128.44,-76.49 131.23,-72.95 132.61,-67.65"/>
<polygon fill="black" stroke="black" points="136.12,-67.67 133.6,-57.38 129.15,-67 136.12,-67.67"/>
<text text-anchor="middle" x="124.25" y="-80.29" font-family="Times New Roman,serif" font-size="14.00">b</text>
</g>
<!-- q2q4 -->
<g id="node6" class="node">
<title>q2q4</title>
<ellipse fill="none" stroke="black" cx="229.74" cy="-118.25" rx="29.5" ry="29.5"/>
<text text-anchor="middle" x="229.74" y="-114.55" font-family="Times New Roman,serif" font-size="14.00">q2q4</text>
</g>
<!-- q1q3&#45;&gt;q2q4 -->
<g id="edge2" class="edge">
<title>q1q3&#45;&gt;q2q4</title>
<path fill="none" stroke="black" d="M146.94,-47.9C162.12,-60.96 182.58,-78.55 199.24,-92.88"/>
<polygon fill="black" stroke="black" points="197.21,-95.75 207.07,-99.61 201.77,-90.44 197.21,-95.75"/>
<text text-anchor="middle" x="178.99" y="-80.05" font-family="Times New Roman,serif" font-size="14.00">a</text>
</g>
<!-- q1q4 -->
<g id="node3" class="node">
<title>q1q4</title>
<ellipse fill="none" stroke="black" cx="332.24" cy="-183.25" rx="29.5" ry="29.5"/>
<text text-anchor="middle" x="332.24" y="-179.55" font-family="Times New Roman,serif" font-size="14.00">q1q4</text>
</g>
<!-- q1q4&#45;&gt;q1q4 -->
<g id="edge5" class="edge">
<title>q1q4&#45;&gt;q1q4</title>
<path fill="none" stroke="black" d="M322.88,-211.38C322.58,-221.86 325.69,-230.49 332.24,-230.49 336.43,-230.49 339.21,-226.95 340.6,-221.65"/>
<polygon fill="black" stroke="black" points="344.11,-221.67 341.59,-211.38 337.14,-221 344.11,-221.67"/>
<text text-anchor="middle" x="332.24" y="-234.29" font-family="Times New Roman,serif" font-size="14.00">b</text>
</g>
<!-- q2q3 -->
<g id="node5" class="node">
<title>q2q3</title>
<ellipse fill="none" stroke="black" cx="433.73" cy="-94.25" rx="29.5" ry="29.5"/>
<text text-anchor="middle" x="433.73" y="-90.55" font-family="Times New Roman,serif" font-size="14.00">q2q3</text>
</g>
<!-- q1q4&#45;&gt;q2q3 -->
<g id="edge4" class="edge">
<title>q1q4&#45;&gt;q2q3</title>
<path fill="none" stroke="black" d="M354.83,-163.94C369.04,-151.22 387.82,-134.42 403.38,-120.5"/>
<polygon fill="black" stroke="black" points="406.07,-122.8 411.19,-113.52 401.4,-117.58 406.07,-122.8"/>
<text text-anchor="middle" x="382.98" y="-145.05" font-family="Times New Roman,serif" font-size="14.00">a</text>
</g>
<!-- q1q5 -->
<g id="node4" class="node">
<title>q1q5</title>
<ellipse fill="none" stroke="black" cx="124.25" cy="-155.25" rx="29.5" ry="29.5"/>
<text text-anchor="middle" x="124.25" y="-151.55" font-family="Times New Roman,serif" font-size="14.00">q1q5</text>
</g>
<!-- q1q5&#45;&gt;q1q4 -->
<g id="edge7" class="edge">
<title>q1q5&#45;&gt;q1q4</title>
<path fill="none" stroke="black" d="M153.46,-159.08C189.64,-164 252.55,-172.55 293.01,-178.05"/>
<polygon fill="black" stroke="black" points="292.66,-181.54 303.04,-179.41 293.6,-174.6 292.66,-181.54"/>
<text text-anchor="middle" x="229.74" y="-177.05" font-family="Times New Roman,serif" font-size="14.00">b</text>
</g>
<!-- q1q5&#45;&gt;q2q4 -->
<g id="edge6" class="edge">
<title>q1q5&#45;&gt;q2q4</title>
<path fill="none" stroke="black" d="M151.9,-145.72C164.12,-141.35 178.8,-136.1 192.04,-131.37"/>
<polygon fill="black" stroke="black" points="193.58,-134.53 201.82,-127.87 191.23,-127.94 193.58,-134.53"/>
<text text-anchor="middle" x="178.99" y="-140.05" font-family="Times New Roman,serif" font-size="14.00">a</text>
</g>
<!-- q2q3&#45;&gt;q1q3 -->
<g id="edge9" class="edge">
<title>q2q3&#45;&gt;q1q3</title>
<path fill="none" stroke="black" d="M406.04,-84.26C399.69,-82.1 392.89,-79.95 386.48,-78.25 308.24,-57.5 214.57,-42.18 163.35,-34.59"/>
<polygon fill="black" stroke="black" points="163.79,-31.12 153.39,-33.13 162.77,-38.04 163.79,-31.12"/>
<text text-anchor="middle" x="280.99" y="-58.05" font-family="Times New Roman,serif" font-size="14.00">b</text>
</g>
<!-- q2q3&#45;&gt;q2q4 -->
<g id="edge8" class="edge">
<title>q2q3&#45;&gt;q2q4</title>
<path fill="none" stroke="black" d="M405.3,-87.08C378.8,-81.28 337.69,-75.28 302.99,-83.25 289.7,-86.3 276.01,-92.13 264.18,-98.17"/>
<polygon fill="black" stroke="black" points="262.29,-95.21 255.12,-103.01 265.59,-101.38 262.29,-95.21"/>
<text text-anchor="middle" x="332.24" y="-87.05" font-family="Times New Roman,serif" font-size="14.00">a</text>
</g>
<!-- q2q4&#45;&gt;q1q4 -->
<g id="edge11" class="edge">
<title>q2q4&#45;&gt;q1q4</title>
<path fill="none" stroke="black" d="M254.81,-133.82C267.99,-142.34 284.5,-153.02 298.79,-162.26"/>
<polygon fill="black" stroke="black" points="297.06,-165.31 307.36,-167.81 300.87,-159.44 297.06,-165.31"/>
<text text-anchor="middle" x="280.99" y="-156.05" font-family="Times New Roman,serif" font-size="14.00">b</text>
</g>
<!-- q2q4&#45;&gt;q2q3 -->
<g id="edge10" class="edge">
<title>q2q4&#45;&gt;q2q3</title>
<path fill="none" stroke="black" d="M258.83,-114.91C294.15,-110.71 354.96,-103.49 394.5,-98.79"/>
<polygon fill="black" stroke="black" points="395.04,-102.25 404.56,-97.59 394.22,-95.3 395.04,-102.25"/>
<text text-anchor="middle" x="332.24" y="-113.05" font-family="Times New Roman,serif" font-size="14.00">a</text>
</g>
<!-- q2q5 -->
<g id="node7" class="node">
<title>q2q5</title>
<ellipse fill="none" stroke="black" cx="124.25" cy="-241.25" rx="29.47" ry="29.47"/>
<ellipse fill="none" stroke="black" cx="124.25" cy="-241.25" rx="33.5" ry="33.5"/>
<text text-anchor="middle" x="124.25" y="-237.55" font-family="Times New Roman,serif" font-size="14.00">q2q5</text>
</g>
<!-- q2q5&#45;&gt;q1q4 -->
<g id="edge13" class="edge">
<title>q2q5&#45;&gt;q1q4</title>
<path fill="none" stroke="black" d="M156.53,-232.44C193.5,-222.03 254.92,-204.74 294.22,-193.67"/>
<polygon fill="black" stroke="black" points="295.27,-197.01 303.94,-190.93 293.37,-190.27 295.27,-197.01"/>
<text text-anchor="middle" x="229.74" y="-223.05" font-family="Times New Roman,serif" font-size="14.00">b</text>
</g>
<!-- q2q5&#45;&gt;q2q4 -->
<g id="edge12" class="edge">
<title>q2q5&#45;&gt;q2q4</title>
<path fill="none" stroke="black" d="M146.44,-216.06C162.94,-196.45 185.89,-169.17 203.37,-148.4"/>
<polygon fill="black" stroke="black" points="206.25,-150.42 210.01,-140.51 200.89,-145.91 206.25,-150.42"/>
<text text-anchor="middle" x="178.99" y="-183.05" font-family="Times New Roman,serif" font-size="14.00">a</text>
</g>
</g>
</svg>
