<?xml version="1.0" encoding="UTF-8" standalone="no"?>
<!DOCTYPE svg PUBLIC "-//W3C//DTD SVG 1.1//EN"
 "http://www.w3.org/Graphics/SVG/1.1/DTD/svg11.dtd">
<!-- Generated by graphviz version 3.0.0 (20220226.1711)
 -->
<!-- Pages: 1 -->
<svg width="240pt" height="154pt"
 viewBox="0.00 0.00 239.59 154.30" xmlns="http://www.w3.org/2000/svg" xmlns:xlink="http://www.w3.org/1999/xlink">
<g id="page0,1_graph0" class="graph" transform="scale(1 1) rotate(0) translate(4 150.3)">
<polygon fill="white" stroke="transparent" points="-4,4 -4,-150.3 235.59,-150.3 235.59,4 -4,4"/>
<!-- start -->
<g id="node1" class="node">
<title>start</title>
<ellipse fill="white" stroke="white" cx="27" cy="-89.15" rx="27" ry="18"/>
</g>
<!-- q3 -->
<g id="node2" class="node">
<title>q3</title>
<ellipse fill="none" stroke="black" cx="115.15" cy="-89.15" rx="20.27" ry="20.27"/>
<ellipse fill="none" stroke="black" cx="115.15" cy="-89.15" rx="24.3" ry="24.3"/>
<text text-anchor="middle" x="115.15" y="-85.45" font-family="Times New Roman,serif" font-size="14.00">q3</text>
</g>
<!-- start&#45;&gt;q3 -->
<g id="edge1" class="edge">
<title>start&#45;&gt;q3</title>
<path fill="none" stroke="black" d="M54.32,-89.15C62.62,-89.15 71.9,-89.15 80.64,-89.15"/>
<polygon fill="black" stroke="black" points="80.91,-92.65 90.91,-89.15 80.91,-85.65 80.91,-92.65"/>
</g>
<!-- q3&#45;&gt;q3 -->
<g id="edge3" class="edge">
<title>q3&#45;&gt;q3</title>
<path fill="none" stroke="black" d="M107.4,-112.13C106.66,-122.41 109.24,-131.3 115.15,-131.3 118.93,-131.3 121.35,-127.65 122.41,-122.32"/>
<polygon fill="black" stroke="black" points="125.91,-122.28 122.9,-112.13 118.92,-121.95 125.91,-122.28"/>
<text text-anchor="middle" x="115.15" y="-135.1" font-family="Times New Roman,serif" font-size="14.00">b</text>
</g>
<!-- q4 -->
<g id="node3" class="node">
<title>q4</title>
<ellipse fill="none" stroke="black" cx="207.44" cy="-55.15" rx="20.27" ry="20.27"/>
<ellipse fill="none" stroke="black" cx="207.44" cy="-55.15" rx="24.3" ry="24.3"/>
<text text-anchor="middle" x="207.44" y="-51.45" font-family="Times New Roman,serif" font-size="14.00">q4</text>
</g>
<!-- q3&#45;&gt;q4 -->
<g id="edge2" class="edge">
<title>q3&#45;&gt;q4</title>
<path fill="none" stroke="black" d="M139.24,-93.06C147.66,-93.6 157.13,-93.15 165.3,-90.15 171.8,-87.76 177.98,-83.83 183.48,-79.45"/>
<polygon fill="black" stroke="black" points="185.8,-82.07 191.01,-72.84 181.18,-76.81 185.8,-82.07"/>
<text text-anchor="middle" x="161.3" y="-95.95" font-family="Times New Roman,serif" font-size="14.00">a</text>
</g>
<!-- q4&#45;&gt;q3 -->
<g id="edge4" class="edge">
<title>q4&#45;&gt;q3</title>
<path fill="none" stroke="black" d="M183.77,-62.02C175.39,-64.69 165.85,-67.89 157.3,-71.15 153.81,-72.47 150.19,-73.93 146.61,-75.43"/>
<polygon fill="black" stroke="black" points="145.15,-72.25 137.34,-79.41 147.91,-78.68 145.15,-72.25"/>
<text text-anchor="middle" x="161.3" y="-74.95" font-family="Times New Roman,serif" font-size="14.00">a</text>
</g>
<!-- q4&#45;&gt;q4 -->
<g id="edge5" class="edge">
<title>q4&#45;&gt;q4</title>
<path fill="none" stroke="black" d="M198.95,-78.13C198.15,-88.41 200.98,-97.3 207.44,-97.3 211.59,-97.3 214.24,-93.65 215.4,-88.32"/>
<polygon fill="black" stroke="black" points="218.9,-88.3 215.93,-78.13 211.91,-87.93 218.9,-88.3"/>
<text text-anchor="middle" x="207.44" y="-101.1" font-family="Times New Roman,serif" font-size="14.00">b</text>
</g>
<!-- q5 -->
<g id="node4" class="node">
<title>q5</title>
<ellipse fill="none" stroke="black" cx="115.15" cy="-20.15" rx="20.3" ry="20.3"/>
<text text-anchor="middle" x="115.15" y="-16.45" font-family="Times New Roman,serif" font-size="14.00">q5</text>
</g>
<!-- q5&#45;&gt;q4 -->
<g id="edge6" class="edge">
<title>q5&#45;&gt;q4</title>
<path fill="none" stroke="black" d="M134.42,-27.23C146.11,-31.76 161.59,-37.76 175.2,-43.04"/>
<polygon fill="black" stroke="black" points="174.11,-46.37 184.7,-46.72 176.64,-39.84 174.11,-46.37"/>
<text text-anchor="middle" x="161.3" y="-42.95" font-family="Times New Roman,serif" font-size="14.00">a</text>
</g>
<!-- q5&#45;&gt;q4 -->
<g id="edge7" class="edge">
<title>q5&#45;&gt;q4</title>
<path fill="none" stroke="black" d="M134.92,-15.95C144.33,-14.69 155.73,-14.48 165.3,-18.15 172.05,-20.74 178.38,-25 183.97,-29.73"/>
<polygon fill="black" stroke="black" points="181.88,-32.57 191.57,-36.85 186.67,-27.46 181.88,-32.57"/>
<text text-anchor="middle" x="161.3" y="-21.95" font-family="Times New Roman,serif" font-size="14.00">b</text>
</g>
</g>
</svg>
