<?xml version="1.0" encoding="UTF-8" standalone="no"?>
<!DOCTYPE svg PUBLIC "-//W3C//DTD SVG 1.1//EN"
 "http://www.w3.org/Graphics/SVG/1.1/DTD/svg11.dtd">
<!-- Generated by graphviz version 3.0.0 (20220226.1711)
 -->
<!-- Pages: 1 -->
<svg width="487pt" height="284pt"
 viewBox="0.00 0.00 486.98 284.49" xmlns="http://www.w3.org/2000/svg" xmlns:xlink="http://www.w3.org/1999/xlink">
<g id="page0,1_graph0" class="graph" transform="scale(1 1) rotate(0) translate(4 280.49)">
<polygon fill="white" stroke="transparent" points="-4,4 -4,-280.49 482.98,-280.49 482.98,4 -4,4"/>
<!-- start -->
<g id="node1" class="node">
<title>start</title>
<ellipse fill="white" stroke="white" cx="27" cy="-29.25" rx="27" ry="18"/>
</g>
<!-- q1q3 -->
<g id="node2" class="node">
<title>q1q3</title>
<ellipse fill="none" stroke="black" cx="124.25" cy="-29.25" rx="29.5" ry="29.5"/>
<text text-anchor="middle" x="124.25" y="-25.55" font-family="Times New Roman,serif" font-size="14.00">q1q3</text>
</g>
<!-- start&#45;&gt;q1q3 -->
<g id="edge1" class="edge">
<title>start&#45;&gt;q1q3</title>
<path fill="none" stroke="black" d="M54.03,-29.25C63.53,-29.25 74.48,-29.25 84.84,-29.25"/>
<polygon fill="black" stroke="black" points="84.91,-32.75 94.91,-29.25 84.91,-25.75 84.91,-32.75"/>
</g>
<!-- q1q3&#45;&gt;q1q3 -->
<g id="edge3" class="edge">
<title>q1q3&#45;&gt;q1q3</title>
<path fill="none" stroke="black" d="M114.89,-57.38C114.59,-67.86 117.7,-76.49 124.25,-76.49 128.44,-76.49 131.23,-72.95 132.61,-67.65"/>
<polygon fill="black" stroke="black" points="136.12,-67.67 133.6,-57.38 129.15,-67 136.12,-67.67"/>
<text text-anchor="middle" x="124.25" y="-80.29" font-family="Times New Roman,serif" font-size="14.00">b</text>
</g>
<!-- q2q4 -->
<g id="node6" class="node">
<title>q2q4</title>
<ellipse fill="none" stroke="black" cx="233.74" cy="-113.25" rx="29.47" ry="29.47"/>
<ellipse fill="none" stroke="black" cx="233.74" cy="-113.25" rx="33.5" ry="33.5"/>
<text text-anchor="middle" x="233.74" y="-109.55" font-family="Times New Roman,serif" font-size="14.00">q2q4</text>
</g>
<!-- q1q3&#45;&gt;q2q4 -->
<g id="edge2" class="edge">
<title>q1q3&#45;&gt;q2q4</title>
<path fill="none" stroke="black" d="M147.78,-46.86C162.6,-58.43 182.25,-73.79 198.92,-86.82"/>
<polygon fill="black" stroke="black" points="196.8,-89.6 206.84,-93 201.11,-84.09 196.8,-89.6"/>
<text text-anchor="middle" x="178.99" y="-77.05" font-family="Times New Roman,serif" font-size="14.00">a</text>
</g>
<!-- q1q4 -->
<g id="node3" class="node">
<title>q1q4</title>
<ellipse fill="none" stroke="black" cx="340.24" cy="-182.25" rx="29.5" ry="29.5"/>
<text text-anchor="middle" x="340.24" y="-178.55" font-family="Times New Roman,serif" font-size="14.00">q1q4</text>
</g>
<!-- q1q4&#45;&gt;q1q4 -->
<g id="edge5" class="edge">
<title>q1q4&#45;&gt;q1q4</title>
<path fill="none" stroke="black" d="M330.88,-210.38C330.58,-220.86 333.69,-229.49 340.24,-229.49 344.43,-229.49 347.21,-225.95 348.6,-220.65"/>
<polygon fill="black" stroke="black" points="352.11,-220.67 349.59,-210.38 345.14,-220 352.11,-220.67"/>
<text text-anchor="middle" x="340.24" y="-233.29" font-family="Times New Roman,serif" font-size="14.00">b</text>
</g>
<!-- q2q3 -->
<g id="node5" class="node">
<title>q2q3</title>
<ellipse fill="none" stroke="black" cx="445.73" cy="-93.25" rx="29.47" ry="29.47"/>
<ellipse fill="none" stroke="black" cx="445.73" cy="-93.25" rx="33.5" ry="33.5"/>
<text text-anchor="middle" x="445.73" y="-89.55" font-family="Times New Roman,serif" font-size="14.00">q2q3</text>
</g>
<!-- q1q4&#45;&gt;q2q3 -->
<g id="edge4" class="edge">
<title>q1q4&#45;&gt;q2q3</title>
<path fill="none" stroke="black" d="M362.93,-163.59C377.2,-151.32 396.12,-135.05 412.17,-121.25"/>
<polygon fill="black" stroke="black" points="414.49,-123.87 419.79,-114.7 409.93,-118.56 414.49,-123.87"/>
<text text-anchor="middle" x="390.98" y="-144.05" font-family="Times New Roman,serif" font-size="14.00">a</text>
</g>
<!-- q1q5 -->
<g id="node4" class="node">
<title>q1q5</title>
<ellipse fill="none" stroke="black" cx="124.25" cy="-155.25" rx="29.47" ry="29.47"/>
<ellipse fill="none" stroke="black" cx="124.25" cy="-155.25" rx="33.5" ry="33.5"/>
<text text-anchor="middle" x="124.25" y="-151.55" font-family="Times New Roman,serif" font-size="14.00">q1q5</text>
</g>
<!-- q1q5&#45;&gt;q1q4 -->
<g id="edge7" class="edge">
<title>q1q5&#45;&gt;q1q4</title>
<path fill="none" stroke="black" d="M157.28,-159.29C195.68,-164.13 259.96,-172.25 300.94,-177.42"/>
<polygon fill="black" stroke="black" points="300.73,-180.92 311.08,-178.7 301.6,-173.97 300.73,-180.92"/>
<text text-anchor="middle" x="233.74" y="-176.05" font-family="Times New Roman,serif" font-size="14.00">b</text>
</g>
<!-- q1q5&#45;&gt;q2q4 -->
<g id="edge6" class="edge">
<title>q1q5&#45;&gt;q2q4</title>
<path fill="none" stroke="black" d="M155.48,-143.44C167.04,-138.92 180.41,-133.69 192.75,-128.87"/>
<polygon fill="black" stroke="black" points="194.33,-132.01 202.37,-125.12 191.78,-125.49 194.33,-132.01"/>
<text text-anchor="middle" x="178.99" y="-139.05" font-family="Times New Roman,serif" font-size="14.00">a</text>
</g>
<!-- q2q3&#45;&gt;q1q3 -->
<g id="edge9" class="edge">
<title>q2q3&#45;&gt;q1q3</title>
<path fill="none" stroke="black" d="M414.09,-82.78C407.66,-80.79 400.88,-78.83 394.48,-77.25 313.2,-57.15 216.14,-41.97 163.61,-34.46"/>
<polygon fill="black" stroke="black" points="163.8,-30.95 153.41,-33.02 162.82,-37.88 163.8,-30.95"/>
<text text-anchor="middle" x="288.99" y="-59.05" font-family="Times New Roman,serif" font-size="14.00">b</text>
</g>
<!-- q2q3&#45;&gt;q2q4 -->
<g id="edge8" class="edge">
<title>q2q3&#45;&gt;q2q4</title>
<path fill="none" stroke="black" d="M413.12,-85.81C385.84,-80.54 345.52,-75.5 310.99,-82.25 298.15,-84.76 284.75,-89.44 272.82,-94.41"/>
<polygon fill="black" stroke="black" points="271.38,-91.22 263.62,-98.43 274.18,-97.64 271.38,-91.22"/>
<text text-anchor="middle" x="340.24" y="-86.05" font-family="Times New Roman,serif" font-size="14.00">a</text>
</g>
<!-- q2q4&#45;&gt;q1q4 -->
<g id="edge11" class="edge">
<title>q2q4&#45;&gt;q1q4</title>
<path fill="none" stroke="black" d="M261.92,-131.2C275.65,-140.26 292.39,-151.31 306.78,-160.82"/>
<polygon fill="black" stroke="black" points="305.12,-163.91 315.39,-166.5 308.98,-158.07 305.12,-163.91"/>
<text text-anchor="middle" x="288.99" y="-153.05" font-family="Times New Roman,serif" font-size="14.00">b</text>
</g>
<!-- q2q4&#45;&gt;q2q3 -->
<g id="edge10" class="edge">
<title>q2q4&#45;&gt;q2q3</title>
<path fill="none" stroke="black" d="M267.09,-110.17C303.39,-106.71 362.42,-101.09 402.37,-97.28"/>
<polygon fill="black" stroke="black" points="402.72,-100.76 412.34,-96.33 402.06,-93.8 402.72,-100.76"/>
<text text-anchor="middle" x="340.24" y="-109.05" font-family="Times New Roman,serif" font-size="14.00">a</text>
</g>
<!-- q2q5 -->
<g id="node7" class="node">
<title>q2q5</title>
<ellipse fill="none" stroke="black" cx="124.25" cy="-243.25" rx="29.47" ry="29.47"/>
<ellipse fill="none" stroke="black" cx="124.25" cy="-243.25" rx="33.5" ry="33.5"/>
<text text-anchor="middle" x="124.25" y="-239.55" font-family="Times New Roman,serif" font-size="14.00">q2q5</text>
</g>
<!-- q2q5&#45;&gt;q1q4 -->
<g id="edge13" class="edge">
<title>q2q5&#45;&gt;q1q4</title>
<path fill="none" stroke="black" d="M156.36,-234.38C195.02,-223.36 260.91,-204.58 302.15,-192.82"/>
<polygon fill="black" stroke="black" points="303.16,-196.17 311.82,-190.06 301.24,-189.44 303.16,-196.17"/>
<text text-anchor="middle" x="233.74" y="-225.05" font-family="Times New Roman,serif" font-size="14.00">b</text>
</g>
<!-- q2q5&#45;&gt;q2q4 -->
<g id="edge12" class="edge">
<title>q2q5&#45;&gt;q2q4</title>
<path fill="none" stroke="black" d="M146.23,-217.87C163.1,-197.47 186.93,-168.65 205.31,-146.42"/>
<polygon fill="black" stroke="black" points="208.14,-148.49 211.81,-138.56 202.74,-144.03 208.14,-148.49"/>
<text text-anchor="middle" x="178.99" y="-185.05" font-family="Times New Roman,serif" font-size="14.00">a</text>
</g>
</g>
</svg>
